<svg xmlns="http://www.w3.org/2000/svg" viewBox="0 0 18 12" role="img" aria-label="United States flag">
  <rect width="18" height="12" fill="#ffffff" />
  <g fill="#b22234">
    <rect y="0" width="18" height="0.923" />
    <rect y="1.846" width="18" height="0.923" />
    <rect y="3.692" width="18" height="0.923" />
    <rect y="5.538" width="18" height="0.923" />
    <rect y="7.384" width="18" height="0.923" />
    <rect y="9.23" width="18" height="0.923" />
    <rect y="11.076" width="18" height="0.924" />
  </g>
  <rect width="7.2" height="6.462" fill="#3c3b6e" />
  <g fill="#ffffff">
    <circle cx="0.72" cy="0.646" r="0.21" />
    <circle cx="2.16" cy="0.646" r="0.21" />
    <circle cx="3.6" cy="0.646" r="0.21" />
    <circle cx="5.04" cy="0.646" r="0.21" />
    <circle cx="6.48" cy="0.646" r="0.21" />

    <circle cx="1.44" cy="1.292" r="0.21" />
    <circle cx="2.88" cy="1.292" r="0.21" />
    <circle cx="4.32" cy="1.292" r="0.21" />
    <circle cx="5.76" cy="1.292" r="0.21" />

    <circle cx="0.72" cy="1.938" r="0.21" />
    <circle cx="2.16" cy="1.938" r="0.21" />
    <circle cx="3.6" cy="1.938" r="0.21" />
    <circle cx="5.04" cy="1.938" r="0.21" />
    <circle cx="6.48" cy="1.938" r="0.21" />

    <circle cx="1.44" cy="2.584" r="0.21" />
    <circle cx="2.88" cy="2.584" r="0.21" />
    <circle cx="4.32" cy="2.584" r="0.21" />
    <circle cx="5.76" cy="2.584" r="0.21" />

    <circle cx="0.72" cy="3.23" r="0.21" />
    <circle cx="2.16" cy="3.23" r="0.21" />
    <circle cx="3.6" cy="3.23" r="0.21" />
    <circle cx="5.04" cy="3.23" r="0.21" />
    <circle cx="6.48" cy="3.23" r="0.21" />

    <circle cx="1.44" cy="3.876" r="0.21" />
    <circle cx="2.88" cy="3.876" r="0.21" />
    <circle cx="4.32" cy="3.876" r="0.21" />
    <circle cx="5.76" cy="3.876" r="0.21" />

    <circle cx="0.72" cy="4.522" r="0.21" />
    <circle cx="2.16" cy="4.522" r="0.21" />
    <circle cx="3.6" cy="4.522" r="0.21" />
    <circle cx="5.04" cy="4.522" r="0.21" />
    <circle cx="6.48" cy="4.522" r="0.21" />

    <circle cx="1.44" cy="5.168" r="0.21" />
    <circle cx="2.88" cy="5.168" r="0.21" />
    <circle cx="4.32" cy="5.168" r="0.21" />
    <circle cx="5.76" cy="5.168" r="0.21" />

    <circle cx="0.72" cy="5.814" r="0.21" />
    <circle cx="2.16" cy="5.814" r="0.21" />
    <circle cx="3.6" cy="5.814" r="0.21" />
    <circle cx="5.04" cy="5.814" r="0.21" />
    <circle cx="6.48" cy="5.814" r="0.21" />
  </g>
</svg>
